<svg width="30" height="30" viewBox="0 0 30 30" fill="none" xmlns="http://www.w3.org/2000/svg">
<g clip-path="url(#clip0_1229_639)">
<path d="M10.0001 13.45H9.27513C8.28576 13.4143 7.2996 13.5822 6.37784 13.9435C5.45609 14.3047 4.61841 14.8516 3.9168 15.55L3.7168 15.7834V22.6834H7.1168V18.7667L7.57513 18.25L7.78346 18.0084C8.8684 16.8938 10.2191 16.0736 11.7085 15.625C10.9631 15.0574 10.375 14.3087 10.0001 13.45Z" fill="black"/>
<path d="M26.1169 15.525C25.4153 14.8265 24.5776 14.2797 23.6559 13.9184C22.7341 13.5572 21.748 13.3892 20.7586 13.425C20.4552 13.4266 20.152 13.4433 19.8503 13.475C19.4684 14.2806 18.8964 14.9812 18.1836 15.5167C19.7737 15.9562 21.2142 16.8204 22.3503 18.0167L22.5586 18.25L23.0086 18.7667V22.6917H26.2919V15.7583L26.1169 15.525Z" fill="black"/>
<path d="M9.24989 11.825H9.50823C9.3882 10.7943 9.56904 9.75098 10.0289 8.82087C10.4888 7.89075 11.2081 7.11363 12.0999 6.58329C11.7766 6.08942 11.3306 5.68796 10.8056 5.41825C10.2805 5.14853 9.69442 5.0198 9.10467 5.04465C8.51492 5.0695 7.94174 5.24709 7.44124 5.56002C6.94075 5.87296 6.5301 6.31051 6.24952 6.82983C5.96894 7.34916 5.82804 7.93245 5.84062 8.52259C5.8532 9.11273 6.01882 9.68948 6.32127 10.1964C6.62373 10.7033 7.05264 11.1229 7.56602 11.4143C8.07939 11.7056 8.65962 11.8586 9.24989 11.8583V11.825Z" fill="black"/>
<path d="M20.3583 11.2C20.3677 11.3916 20.3677 11.5835 20.3583 11.775C20.5182 11.8007 20.6797 11.8146 20.8416 11.8167H20.9999C21.5876 11.7854 22.1572 11.6024 22.6531 11.2856C23.1491 10.9688 23.5546 10.529 23.8301 10.009C24.1057 9.48895 24.2419 8.90644 24.2255 8.31816C24.209 7.72987 24.0406 7.15586 23.7365 6.65201C23.4324 6.14816 23.003 5.73163 22.4901 5.44299C21.9773 5.15434 21.3984 5.00341 20.8099 5.00489C20.2214 5.00637 19.6433 5.16021 19.1319 5.45144C18.6205 5.74266 18.1932 6.16134 17.8916 6.66671C18.6458 7.15916 19.266 7.83114 19.6965 8.62236C20.1271 9.41358 20.3544 10.2993 20.3583 11.2Z" fill="black"/>
<path d="M14.892 14.9333C16.9493 14.9333 18.617 13.2655 18.617 11.2083C18.617 9.15102 16.9493 7.48328 14.892 7.48328C12.8347 7.48328 11.167 9.15102 11.167 11.2083C11.167 13.2655 12.8347 14.9333 14.892 14.9333Z" fill="black"/>
<path d="M15.0913 16.9166C14.0031 16.8732 12.9173 17.0501 11.8991 17.4367C10.881 17.8234 9.95143 18.4118 9.16634 19.1666L8.95801 19.4V24.675C8.96126 24.8468 8.99833 25.0163 9.0671 25.1738C9.13587 25.3313 9.235 25.4737 9.35882 25.5929C9.48264 25.712 9.62872 25.8057 9.78872 25.8684C9.94873 25.9311 10.1195 25.9616 10.2913 25.9583H19.8663C20.0382 25.9616 20.209 25.9311 20.369 25.8684C20.529 25.8057 20.675 25.712 20.7989 25.5929C20.9227 25.4737 21.0218 25.3313 21.0906 25.1738C21.1594 25.0163 21.1964 24.8468 21.1997 24.675V19.4166L20.9997 19.1666C20.2199 18.4091 19.2937 17.8188 18.2777 17.4319C17.2618 17.045 16.1775 16.8696 15.0913 16.9166Z" fill="black"/>
</g>
<defs>
<clipPath id="clip0_1229_639">
<rect width="30" height="30" fill="white"/>
</clipPath>
</defs>
</svg>
