<svg width="19" height="16" viewBox="0 0 19 16" fill="none" xmlns="http://www.w3.org/2000/svg">
<g clip-path="url(#clip0_1229_2527)">
<path d="M14.4824 6.04175V5.71852C14.4824 4.2631 11.6747 3.16515 7.95118 3.16515C4.22762 3.16515 1.41992 4.2631 1.41992 5.71852V8.03976C1.41992 9.25203 3.36817 10.2153 6.16993 10.5038V10.8252C6.16993 12.2807 8.97763 13.3786 12.7012 13.3786C16.4247 13.3786 19.2324 12.2807 19.2324 10.8252V8.50401C19.2324 7.30276 17.3458 6.33829 14.4824 6.04175ZM18.0449 8.50401C18.0449 9.27118 15.7597 10.1289 12.7012 10.1289C12.4243 10.1289 12.1497 10.1213 11.8788 10.1074C13.4797 9.65128 14.4824 8.91022 14.4824 8.03976V6.98011C16.6994 7.23835 18.0449 7.93936 18.0449 8.50401ZM6.16993 9.56307V8.18251C6.76055 8.24264 7.35557 8.2725 7.95118 8.27188C8.54679 8.2725 9.14181 8.24264 9.73243 8.18251V9.56307C9.14269 9.63119 8.54732 9.66514 7.95118 9.66463C7.35504 9.66514 6.75967 9.63119 6.16993 9.56307ZM13.2949 7.22326V8.03976C13.2949 8.52664 12.3739 9.0495 10.9199 9.36693V8.01074C11.8781 7.8291 12.6893 7.55868 13.2949 7.22326ZM7.95118 4.09365C11.0097 4.09365 13.2949 4.95135 13.2949 5.71852C13.2949 6.48569 11.0097 7.34339 7.95118 7.34339C4.89262 7.34339 2.60742 6.48569 2.60742 5.71852C2.60742 4.95135 4.89262 4.09365 7.95118 4.09365ZM2.60742 8.03976V7.22326C3.21305 7.55868 4.02426 7.8291 4.98243 8.01074V9.36693C3.52848 9.0495 2.60742 8.52664 2.60742 8.03976ZM7.35743 10.8252V10.5833C7.55262 10.5891 7.75005 10.5931 7.95118 10.5931C8.23915 10.5931 8.52044 10.5856 8.79653 10.5728C9.10325 10.6587 9.41567 10.7315 9.73243 10.791V12.1524C8.27848 11.835 7.35743 11.3121 7.35743 10.8252ZM10.9199 12.3486V10.9645C11.5104 11.0266 12.1054 11.0576 12.7012 11.0574C13.2968 11.058 13.8918 11.0281 14.4824 10.968V12.3486C13.3012 12.4839 12.1011 12.4839 10.9199 12.3486ZM15.6699 12.1524V10.7962C16.6281 10.6146 17.4393 10.3442 18.0449 10.0087V10.8252C18.0449 11.3121 17.1239 11.835 15.6699 12.1524Z" fill="#191919"/>
</g>
<defs>
<clipPath id="clip0_1229_2527">
<rect width="19" height="14.8559" fill="white" transform="translate(0 0.84391)"/>
</clipPath>
</defs>
</svg>
